# xmcd
#
# Track frame offsets:
# 150
# 22580
# 49391
# 66582
# 84947
# 106722
# 122760
# 145023
# 166613
# 185831
#
# Disc length: 2772 seconds
#
#
# Revision: 0
# Processed by: cddbd v1.5.1PL0 Copyright (c) Steve Scherf et al.
# Submitted via: CDLP Version 5
#
DISCID=7b0ad20a
DTITLE=アーティスト情報なし - アルバム情報なし (2004/12/27 16:59:05)
DYEAR=1900
DGENRE=Misc
TTITLE0=トラック 1
TTITLE1=トラック 2
TTITLE2=トラック 3
TTITLE3=トラック 4
TTITLE4=トラック 5
TTITLE5=トラック 6
TTITLE6=トラック 7
TTITLE7=トラック 8
TTITLE8=トラック 9
TTITLE9=トラック 10
EXTD=
EXTT0=
EXTT1=
EXTT2=
EXTT3=
EXTT4=
EXTT5=
EXTT6=
EXTT7=
EXTT8=
EXTT9=
PLAYORDER=
